<svg xmlns="http://www.w3.org/2000/svg" viewBox="0 0 200 200" fill="none">
  <circle cx="100" cy="100" r="96" stroke="#00008B" stroke-width="5"/>
  <circle cx="100" cy="100" r="84" stroke="#00008B" stroke-width="1.5"/>
  <circle cx="100" cy="100" r="10" fill="#00008B"/>
  <circle cx="100" cy="100" r="5" fill="white"/>
  <line x1="100" y1="90" x2="100" y2="16" stroke="#00008B" stroke-width="2" stroke-linecap="round"/>
  <circle cx="100" cy="16" r="2.5" fill="#00008B"/>
  <line x1="107.8" y1="90.7" x2="134.0" y2="22.1" stroke="#00008B" stroke-width="2" stroke-linecap="round"/>
  <circle cx="134.0" cy="22.1" r="2.5" fill="#00008B"/>
  <line x1="114.1" y1="93.6" x2="162.6" y2="37.4" stroke="#00008B" stroke-width="2" stroke-linecap="round"/>
  <circle cx="162.6" cy="37.4" r="2.5" fill="#00008B"/>
  <line x1="118.1" y1="99.3" x2="183.2" y2="60.8" stroke="#00008B" stroke-width="2" stroke-linecap="round"/>
  <circle cx="183.2" cy="60.8" r="2.5" fill="#00008B"/>
  <line x1="118.1" y1="106.6" x2="183.2" y2="139.2" stroke="#00008B" stroke-width="2" stroke-linecap="round"/>
  <circle cx="183.2" cy="139.2" r="2.5" fill="#00008B"/>
  <line x1="114.1" y1="113.0" x2="162.6" y2="162.6" stroke="#00008B" stroke-width="2" stroke-linecap="round"/>
  <circle cx="162.6" cy="162.6" r="2.5" fill="#00008B"/>
  <line x1="107.8" y1="116.3" x2="134.0" y2="177.9" stroke="#00008B" stroke-width="2" stroke-linecap="round"/>
  <circle cx="134.0" cy="177.9" r="2.5" fill="#00008B"/>
  <line x1="100" y1="117.0" x2="100" y2="184" stroke="#00008B" stroke-width="2" stroke-linecap="round"/>
  <circle cx="100" cy="184" r="2.5" fill="#00008B"/>
  <line x1="92.2" y1="116.3" x2="66.0" y2="177.9" stroke="#00008B" stroke-width="2" stroke-linecap="round"/>
  <circle cx="66.0" cy="177.9" r="2.5" fill="#00008B"/>
  <line x1="85.9" y1="113.0" x2="37.4" y2="162.6" stroke="#00008B" stroke-width="2" stroke-linecap="round"/>
  <circle cx="37.4" cy="162.6" r="2.5" fill="#00008B"/>
  <line x1="81.9" y1="106.6" x2="16.8" y2="139.2" stroke="#00008B" stroke-width="2" stroke-linecap="round"/>
  <circle cx="16.8" cy="139.2" r="2.5" fill="#00008B"/>
  <line x1="81.9" y1="99.3" x2="16.8" y2="60.8" stroke="#00008B" stroke-width="2" stroke-linecap="round"/>
  <circle cx="16.8" cy="60.8" r="2.5" fill="#00008B"/>
  <line x1="85.9" y1="93.6" x2="37.4" y2="37.4" stroke="#00008B" stroke-width="2" stroke-linecap="round"/>
  <circle cx="37.4" cy="37.4" r="2.5" fill="#00008B"/>
  <line x1="92.2" y1="90.7" x2="66.0" y2="22.1" stroke="#00008B" stroke-width="2" stroke-linecap="round"/>
  <circle cx="66.0" cy="22.1" r="2.5" fill="#00008B"/>
  <line x1="103.9" y1="90.3" x2="117.3" y2="17.4" stroke="#00008B" stroke-width="2" stroke-linecap="round"/>
  <circle cx="117.3" cy="17.4" r="2.5" fill="#00008B"/>
  <line x1="111.0" y1="92.7" x2="149.0" y2="28.2" stroke="#00008B" stroke-width="2" stroke-linecap="round"/>
  <circle cx="149.0" cy="28.2" r="2.5" fill="#00008B"/>
  <line x1="116.2" y1="97.2" x2="175.3" y2="47.7" stroke="#00008B" stroke-width="2" stroke-linecap="round"/>
  <circle cx="175.3" cy="47.7" r="2.5" fill="#00008B"/>
  <line x1="118.4" y1="103.0" x2="184.0" y2="99.5" stroke="#00008B" stroke-width="2" stroke-linecap="round"/>
  <circle cx="184.0" cy="99.5" r="2.5" fill="#00008B"/>
  <line x1="116.2" y1="108.7" x2="175.3" y2="152.3" stroke="#00008B" stroke-width="2" stroke-linecap="round"/>
  <circle cx="175.3" cy="152.3" r="2.5" fill="#00008B"/>
  <line x1="111.0" y1="113.2" x2="149.0" y2="171.8" stroke="#00008B" stroke-width="2" stroke-linecap="round"/>
  <circle cx="149.0" cy="171.8" r="2.5" fill="#00008B"/>
  <line x1="103.9" y1="115.6" x2="117.3" y2="182.6" stroke="#00008B" stroke-width="2" stroke-linecap="round"/>
  <circle cx="117.3" cy="182.6" r="2.5" fill="#00008B"/>
  <line x1="96.1" y1="115.6" x2="82.7" y2="182.6" stroke="#00008B" stroke-width="2" stroke-linecap="round"/>
  <circle cx="82.7" cy="182.6" r="2.5" fill="#00008B"/>
  <line x1="89.0" y1="113.2" x2="51.0" y2="171.8" stroke="#00008B" stroke-width="2" stroke-linecap="round"/>
  <circle cx="51.0" cy="171.8" r="2.5" fill="#00008B"/>
  <line x1="83.8" y1="108.7" x2="24.7" y2="152.3" stroke="#00008B" stroke-width="2" stroke-linecap="round"/>
  <circle cx="24.7" cy="152.3" r="2.5" fill="#00008B"/>
  <line x1="81.6" y1="103.0" x2="16.0" y2="99.5" stroke="#00008B" stroke-width="2" stroke-linecap="round"/>
  <circle cx="16.0" cy="99.5" r="2.5" fill="#00008B"/>
  <line x1="83.8" y1="97.2" x2="24.7" y2="47.7" stroke="#00008B" stroke-width="2" stroke-linecap="round"/>
  <circle cx="24.7" cy="47.7" r="2.5" fill="#00008B"/>
  <line x1="89.0" y1="92.7" x2="51.0" y2="28.2" stroke="#00008B" stroke-width="2" stroke-linecap="round"/>
  <circle cx="51.0" cy="28.2" r="2.5" fill="#00008B"/>
  <line x1="96.1" y1="90.3" x2="82.7" y2="17.4" stroke="#00008B" stroke-width="2" stroke-linecap="round"/>
  <circle cx="82.7" cy="17.4" r="2.5" fill="#00008B"/>
</svg>
